<svg xmlns="http://www.w3.org/2000/svg" xmlns:xlink="http://www.w3.org/1999/xlink" contentStyleType="text/css" data-diagram-type="SEQUENCE" height="415px" preserveAspectRatio="none" style="width:1019px;height:415px;background:#FFFFFF;" version="1.1" viewBox="0 0 1019 415" width="1019px" zoomAndPan="magnify"><defs/><g><g><title>User</title><rect fill="#000000" fill-opacity="0.00000" height="253.0625" width="8" x="19.9551" y="81.2969"/><line style="stroke:#181818;stroke-width:0.5;stroke-dasharray:5,5;" x1="23" x2="23" y1="81.2969" y2="334.3594"/></g><g><title>PlayerListActivity</title><rect fill="#000000" fill-opacity="0.00000" height="253.0625" width="8" x="151.3447" y="81.2969"/><line style="stroke:#181818;stroke-width:0.5;stroke-dasharray:5,5;" x1="155.0244" x2="155.0244" y1="81.2969" y2="334.3594"/></g><g><title>PlayerViewModel</title><rect fill="#000000" fill-opacity="0.00000" height="253.0625" width="8" x="440.1689" y="81.2969"/><line style="stroke:#181818;stroke-width:0.5;stroke-dasharray:5,5;" x1="443.604" x2="443.604" y1="81.2969" y2="334.3594"/></g><g><title>AddPlayerUseCase</title><rect fill="#000000" fill-opacity="0.00000" height="253.0625" width="8" x="589.3999" y="81.2969"/><line style="stroke:#181818;stroke-width:0.5;stroke-dasharray:5,5;" x1="592.7339" x2="592.7339" y1="81.2969" y2="334.3594"/></g><g><title>PlayerRepository</title><rect fill="#000000" fill-opacity="0.00000" height="253.0625" width="8" x="738.3848" y="81.2969"/><line style="stroke:#181818;stroke-width:0.5;stroke-dasharray:5,5;" x1="742.0659" x2="742.0659" y1="81.2969" y2="334.3594"/></g><g><title>PlayerDao</title><rect fill="#000000" fill-opacity="0.00000" height="253.0625" width="8" x="857.4487" y="81.2969"/><line style="stroke:#181818;stroke-width:0.5;stroke-dasharray:5,5;" x1="860.7036" x2="860.7036" y1="81.2969" y2="334.3594"/></g><g><title>SyncService</title><rect fill="#000000" fill-opacity="0.00000" height="253.0625" width="8" x="959.9355" y="81.2969"/><line style="stroke:#181818;stroke-width:0.5;stroke-dasharray:5,5;" x1="963.1938" x2="963.1938" y1="81.2969" y2="334.3594"/></g><g class="participant participant-head" data-participant="User"><text fill="#000000" font-family="sans-serif" font-size="14" lengthAdjust="spacing" textLength="31.9102" x="5" y="77.9951">User</text><ellipse cx="23.9551" cy="13.5" fill="#E2E2F0" rx="8" ry="8" style="stroke:#181818;stroke-width:0.5;"/><path d="M23.9551,21.5 L23.9551,48.5 M10.9551,29.5 L36.9551,29.5 M23.9551,48.5 L10.9551,63.5 M23.9551,48.5 L36.9551,63.5" fill="none" style="stroke:#181818;stroke-width:0.5;"/></g><g class="participant participant-tail" data-participant="User"><text fill="#000000" font-family="sans-serif" font-size="14" lengthAdjust="spacing" textLength="31.9102" x="5" y="346.3545">User</text><ellipse cx="23.9551" cy="358.1563" fill="#E2E2F0" rx="8" ry="8" style="stroke:#181818;stroke-width:0.5;"/><path d="M23.9551,366.1563 L23.9551,393.1563 M10.9551,374.1563 L36.9551,374.1563 M23.9551,393.1563 L10.9551,408.1563 M23.9551,393.1563 L36.9551,408.1563" fill="none" style="stroke:#181818;stroke-width:0.5;"/></g><g class="participant participant-head" data-participant="PlayerListActivity"><rect fill="#E2E2F0" height="30.2969" rx="2.5" ry="2.5" style="stroke:#181818;stroke-width:0.5;" width="134.6406" x="88.0244" y="50"/><text fill="#000000" font-family="sans-serif" font-size="14" lengthAdjust="spacing" textLength="120.6406" x="95.0244" y="69.9951">PlayerListActivity</text></g><g class="participant participant-tail" data-participant="PlayerListActivity"><rect fill="#E2E2F0" height="30.2969" rx="2.5" ry="2.5" style="stroke:#181818;stroke-width:0.5;" width="134.6406" x="88.0244" y="333.3594"/><text fill="#000000" font-family="sans-serif" font-size="14" lengthAdjust="spacing" textLength="120.6406" x="95.0244" y="353.3545">PlayerListActivity</text></g><g class="participant participant-head" data-participant="PlayerViewModel"><rect fill="#E2E2F0" height="30.2969" rx="2.5" ry="2.5" style="stroke:#181818;stroke-width:0.5;" width="133.1299" x="377.604" y="50"/><text fill="#000000" font-family="sans-serif" font-size="14" lengthAdjust="spacing" textLength="119.1299" x="384.604" y="69.9951">PlayerViewModel</text></g><g class="participant participant-tail" data-participant="PlayerViewModel"><rect fill="#E2E2F0" height="30.2969" rx="2.5" ry="2.5" style="stroke:#181818;stroke-width:0.5;" width="133.1299" x="377.604" y="333.3594"/><text fill="#000000" font-family="sans-serif" font-size="14" lengthAdjust="spacing" textLength="119.1299" x="384.604" y="353.3545">PlayerViewModel</text></g><g class="participant participant-head" data-participant="AddPlayerUseCase"><rect fill="#E2E2F0" height="30.2969" rx="2.5" ry="2.5" style="stroke:#181818;stroke-width:0.5;" width="145.332" x="520.7339" y="50"/><text fill="#000000" font-family="sans-serif" font-size="14" lengthAdjust="spacing" textLength="131.332" x="527.7339" y="69.9951">AddPlayerUseCase</text></g><g class="participant participant-tail" data-participant="AddPlayerUseCase"><rect fill="#E2E2F0" height="30.2969" rx="2.5" ry="2.5" style="stroke:#181818;stroke-width:0.5;" width="145.332" x="520.7339" y="333.3594"/><text fill="#000000" font-family="sans-serif" font-size="14" lengthAdjust="spacing" textLength="131.332" x="527.7339" y="353.3545">AddPlayerUseCase</text></g><g class="participant participant-head" data-participant="PlayerRepository"><rect fill="#E2E2F0" height="30.2969" rx="2.5" ry="2.5" style="stroke:#181818;stroke-width:0.5;" width="132.6377" x="676.0659" y="50"/><text fill="#000000" font-family="sans-serif" font-size="14" lengthAdjust="spacing" textLength="118.6377" x="683.0659" y="69.9951">PlayerRepository</text></g><g class="participant participant-tail" data-participant="PlayerRepository"><rect fill="#E2E2F0" height="30.2969" rx="2.5" ry="2.5" style="stroke:#181818;stroke-width:0.5;" width="132.6377" x="676.0659" y="333.3594"/><text fill="#000000" font-family="sans-serif" font-size="14" lengthAdjust="spacing" textLength="118.6377" x="683.0659" y="353.3545">PlayerRepository</text></g><g class="participant participant-head" data-participant="PlayerDao"><rect fill="#E2E2F0" height="30.2969" rx="2.5" ry="2.5" style="stroke:#181818;stroke-width:0.5;" width="85.4902" x="818.7036" y="50"/><text fill="#000000" font-family="sans-serif" font-size="14" lengthAdjust="spacing" textLength="71.4902" x="825.7036" y="69.9951">PlayerDao</text></g><g class="participant participant-tail" data-participant="PlayerDao"><rect fill="#E2E2F0" height="30.2969" rx="2.5" ry="2.5" style="stroke:#181818;stroke-width:0.5;" width="85.4902" x="818.7036" y="333.3594"/><text fill="#000000" font-family="sans-serif" font-size="14" lengthAdjust="spacing" textLength="71.4902" x="825.7036" y="353.3545">PlayerDao</text></g><g class="participant participant-head" data-participant="SyncService"><rect fill="#E2E2F0" height="30.2969" rx="2.5" ry="2.5" style="stroke:#181818;stroke-width:0.5;" width="99.4834" x="914.1938" y="50"/><text fill="#000000" font-family="sans-serif" font-size="14" lengthAdjust="spacing" textLength="85.4834" x="921.1938" y="69.9951">SyncService</text></g><g class="participant participant-tail" data-participant="SyncService"><rect fill="#E2E2F0" height="30.2969" rx="2.5" ry="2.5" style="stroke:#181818;stroke-width:0.5;" width="99.4834" x="914.1938" y="333.3594"/><text fill="#000000" font-family="sans-serif" font-size="14" lengthAdjust="spacing" textLength="85.4834" x="921.1938" y="353.3545">SyncService</text></g><g class="message" data-participant-1="User" data-participant-2="PlayerListActivity"><polygon fill="#181818" points="143.3447,108.4297,153.3447,112.4297,143.3447,116.4297,147.3447,112.4297" style="stroke:#181818;stroke-width:1;"/><line style="stroke:#181818;stroke-width:1;" x1="23.9551" x2="149.3447" y1="112.4297" y2="112.4297"/><text fill="#000000" font-family="sans-serif" font-size="13" lengthAdjust="spacing" textLength="107.3896" x="30.9551" y="107.3638">tap "Add Player"</text></g><g class="message" data-participant-1="PlayerListActivity" data-participant-2="PlayerViewModel"><polygon fill="#181818" points="432.1689,137.5625,442.1689,141.5625,432.1689,145.5625,436.1689,141.5625" style="stroke:#181818;stroke-width:1;"/><line style="stroke:#181818;stroke-width:1;" x1="155.3447" x2="438.1689" y1="141.5625" y2="141.5625"/><text fill="#000000" font-family="sans-serif" font-size="13" lengthAdjust="spacing" textLength="264.8242" x="162.3447" y="136.4966">addPlayer(name, avatar, colour, teamId)</text></g><g class="message" data-participant-1="PlayerViewModel" data-participant-2="AddPlayerUseCase"><polygon fill="#181818" points="581.3999,166.6953,591.3999,170.6953,581.3999,174.6953,585.3999,170.6953" style="stroke:#181818;stroke-width:1;"/><line style="stroke:#181818;stroke-width:1;" x1="444.1689" x2="587.3999" y1="170.6953" y2="170.6953"/><text fill="#000000" font-family="sans-serif" font-size="13" lengthAdjust="spacing" textLength="112.0171" x="451.1689" y="165.6294">execute(request)</text></g><g class="message" data-participant-1="AddPlayerUseCase" data-participant-2="PlayerRepository"><polygon fill="#181818" points="730.3848,195.8281,740.3848,199.8281,730.3848,203.8281,734.3848,199.8281" style="stroke:#181818;stroke-width:1;"/><line style="stroke:#181818;stroke-width:1;" x1="593.3999" x2="736.3848" y1="199.8281" y2="199.8281"/><text fill="#000000" font-family="sans-serif" font-size="13" lengthAdjust="spacing" textLength="115.9336" x="600.3999" y="194.7622">addPlayer(player)</text></g><g class="message" data-participant-1="PlayerRepository" data-participant-2="PlayerDao"><polygon fill="#181818" points="849.4487,224.9609,859.4487,228.9609,849.4487,232.9609,853.4487,228.9609" style="stroke:#181818;stroke-width:1;"/><line style="stroke:#181818;stroke-width:1;" x1="742.3848" x2="855.4487" y1="228.9609" y2="228.9609"/><text fill="#000000" font-family="sans-serif" font-size="13" lengthAdjust="spacing" textLength="88.0737" x="749.3848" y="223.895">insert(player)</text></g><g class="message" data-participant-1="PlayerRepository" data-participant-2="SyncService"><polygon fill="#181818" points="951.9355,254.0938,961.9355,258.0938,951.9355,262.0938,955.9355,258.0938" style="stroke:#181818;stroke-width:1;"/><line style="stroke:#181818;stroke-width:1;stroke-dasharray:2,2;" x1="742.3848" x2="957.9355" y1="258.0938" y2="258.0938"/><text fill="#000000" font-family="sans-serif" font-size="13" lengthAdjust="spacing" textLength="139.3057" x="749.3848" y="253.0278">enqueueSync(player)</text></g><g class="message" data-participant-1="AddPlayerUseCase" data-participant-2="PlayerViewModel"><polygon fill="#181818" points="455.1689,283.2266,445.1689,287.2266,455.1689,291.2266,451.1689,287.2266" style="stroke:#181818;stroke-width:1;"/><line style="stroke:#181818;stroke-width:1;stroke-dasharray:2,2;" x1="449.1689" x2="592.3999" y1="287.2266" y2="287.2266"/><text fill="#000000" font-family="sans-serif" font-size="13" lengthAdjust="spacing" textLength="50.8511" x="461.1689" y="282.1606">success</text></g><g class="message" data-participant-1="PlayerViewModel" data-participant-2="PlayerListActivity"><polygon fill="#181818" points="166.3447,312.3594,156.3447,316.3594,166.3447,320.3594,162.3447,316.3594" style="stroke:#181818;stroke-width:1;"/><line style="stroke:#181818;stroke-width:1;stroke-dasharray:2,2;" x1="160.3447" x2="443.1689" y1="316.3594" y2="316.3594"/><text fill="#000000" font-family="sans-serif" font-size="13" lengthAdjust="spacing" textLength="163.4141" x="172.3447" y="311.2935">playersLiveData updated</text></g><!--SRC=[VP7DZi8m38JlVGgB4qZm0XoGgkM21D9g4TojP0wHIbDYfz2tn_nLkrlW4alEVFPamavZefqW5TU3PWlwhhX3MWVHqcbeWtOq9-M6HgNtZzjHyKBLi_k0qoPwL0Qoz_VckEO3fiGjAwSfkLZ5R5N1XvMV5Fz96rO-KNFsnGARXZDSLemJZXcYasAWwKtye8aIx7NT7nVDhJpt_HBru9AZ4Q6sEFI3tFJRhdPRf3QucxVQF6LScpqsjFSo9CdEGMGOmhllkC-NTMYnj3mfDvuL_W80]--></g></svg>