<svg xmlns="http://www.w3.org/2000/svg" xmlns:xlink="http://www.w3.org/1999/xlink" contentStyleType="text/css" data-diagram-type="CLASS" height="349px" preserveAspectRatio="none" style="width:171px;height:349px;background:#FFFFFF;" version="1.1" viewBox="0 0 171 349" width="171px" zoomAndPan="magnify"><defs/><g><!--class Player--><g class="entity" data-entity="Player" data-source-line="1" data-uid="ent0002" id="entity_Player"><rect fill="#F1F1F1" height="162.0781" rx="2.5" ry="2.5" style="stroke:#181818;stroke-width:0.5;" width="157.1748" x="7" y="7"/><ellipse cx="59.5547" cy="23" fill="#ADD1B2" rx="11" ry="11" style="stroke:#181818;stroke-width:1;"/><path d="M62.5234,28.6406 Q61.9453,28.9375 61.3047,29.0781 Q60.6641,29.2344 59.9609,29.2344 Q57.4609,29.2344 56.1328,27.5938 Q54.8203,25.9375 54.8203,22.8125 Q54.8203,19.6875 56.1328,18.0313 Q57.4609,16.375 59.9609,16.375 Q60.6641,16.375 61.3047,16.5313 Q61.9609,16.6875 62.5234,16.9844 L62.5234,19.7031 Q61.8984,19.125 61.3047,18.8594 Q60.7109,18.5781 60.0859,18.5781 Q58.7422,18.5781 58.0547,19.6563 Q57.3672,20.7188 57.3672,22.8125 Q57.3672,24.9063 58.0547,25.9844 Q58.7422,27.0469 60.0859,27.0469 Q60.7109,27.0469 61.3047,26.7813 Q61.8984,26.5 62.5234,25.9219 L62.5234,28.6406 Z " fill="#000000"/><text fill="#000000" font-family="sans-serif" font-size="14" lengthAdjust="spacing" textLength="43.5654" x="80.0547" y="27.8467">Player</text><line style="stroke:#181818;stroke-width:0.5;" x1="8" x2="163.1748" y1="39" y2="39"/><ellipse cx="18" cy="52.6484" fill="none" rx="3" ry="3" style="stroke:#038048;stroke-width:1;"/><text fill="#000000" font-family="sans-serif" font-size="14" lengthAdjust="spacing" textLength="101.5957" x="27" y="55.9951">playerId: UUID</text><ellipse cx="18" cy="68.9453" fill="none" rx="3" ry="3" style="stroke:#038048;stroke-width:1;"/><text fill="#000000" font-family="sans-serif" font-size="14" lengthAdjust="spacing" textLength="90.6514" x="27" y="72.292">name: String</text><ellipse cx="18" cy="85.2422" fill="none" rx="3" ry="3" style="stroke:#038048;stroke-width:1;"/><text fill="#000000" font-family="sans-serif" font-size="14" lengthAdjust="spacing" textLength="94.2197" x="27" y="88.5889">avatarUri: Uri</text><ellipse cx="18" cy="101.5391" fill="none" rx="3" ry="3" style="stroke:#038048;stroke-width:1;"/><text fill="#000000" font-family="sans-serif" font-size="14" lengthAdjust="spacing" textLength="62.1318" x="27" y="104.8857">color: Int</text><ellipse cx="18" cy="117.8359" fill="none" rx="3" ry="3" style="stroke:#038048;stroke-width:1;"/><text fill="#000000" font-family="sans-serif" font-size="14" lengthAdjust="spacing" textLength="101.3359" x="27" y="121.1826">teamId: UUID?</text><ellipse cx="18" cy="134.1328" fill="none" rx="3" ry="3" style="stroke:#038048;stroke-width:1;"/><text fill="#000000" font-family="sans-serif" font-size="14" lengthAdjust="spacing" textLength="126.5947" x="27" y="137.4795">createdAt: Instant</text><ellipse cx="18" cy="150.4297" fill="none" rx="3" ry="3" style="stroke:#038048;stroke-width:1;"/><text fill="#000000" font-family="sans-serif" font-size="14" lengthAdjust="spacing" textLength="131.1748" x="27" y="153.7764">updatedAt: Instant</text><line style="stroke:#181818;stroke-width:0.5;" x1="8" x2="163.1748" y1="161.0781" y2="161.0781"/></g><!--class Team--><g class="entity" data-entity="Team" data-source-line="11" data-uid="ent0003" id="entity_Team"><rect fill="#F1F1F1" height="96.8906" rx="2.5" ry="2.5" style="stroke:#181818;stroke-width:0.5;" width="119.9053" x="25.63" y="246.08"/><ellipse cx="62.4655" cy="262.08" fill="#ADD1B2" rx="11" ry="11" style="stroke:#181818;stroke-width:1;"/><path d="M65.4343,267.7206 Q64.8562,268.0175 64.2155,268.1581 Q63.5749,268.3144 62.8718,268.3144 Q60.3718,268.3144 59.0437,266.6738 Q57.7312,265.0175 57.7312,261.8925 Q57.7312,258.7675 59.0437,257.1113 Q60.3718,255.455 62.8718,255.455 Q63.5749,255.455 64.2155,255.6113 Q64.8718,255.7675 65.4343,256.0644 L65.4343,258.7831 Q64.8093,258.205 64.2155,257.9394 Q63.6218,257.6581 62.9968,257.6581 Q61.653,257.6581 60.9655,258.7363 Q60.278,259.7988 60.278,261.8925 Q60.278,263.9863 60.9655,265.0644 Q61.653,266.1269 62.9968,266.1269 Q63.6218,266.1269 64.2155,265.8613 Q64.8093,265.58 65.4343,265.0019 L65.4343,267.7206 Z " fill="#000000"/><text fill="#000000" font-family="sans-serif" font-size="14" lengthAdjust="spacing" textLength="39.3818" x="81.3179" y="266.9267">Team</text><line style="stroke:#181818;stroke-width:0.5;" x1="26.63" x2="144.5353" y1="278.08" y2="278.08"/><ellipse cx="36.63" cy="291.7284" fill="none" rx="3" ry="3" style="stroke:#038048;stroke-width:1;"/><text fill="#000000" font-family="sans-serif" font-size="14" lengthAdjust="spacing" textLength="93.9053" x="45.63" y="295.0751">teamId: UUID</text><ellipse cx="36.63" cy="308.0253" fill="none" rx="3" ry="3" style="stroke:#038048;stroke-width:1;"/><text fill="#000000" font-family="sans-serif" font-size="14" lengthAdjust="spacing" textLength="90.6514" x="45.63" y="311.372">name: String</text><ellipse cx="36.63" cy="324.3222" fill="none" rx="3" ry="3" style="stroke:#038048;stroke-width:1;"/><text fill="#000000" font-family="sans-serif" font-size="14" lengthAdjust="spacing" textLength="62.1318" x="45.63" y="327.6689">color: Int</text><line style="stroke:#181818;stroke-width:0.5;" x1="26.63" x2="144.5353" y1="334.9706" y2="334.9706"/></g><!--link Player to Team--><g class="link" data-entity-1="Player" data-entity-2="Team" data-source-line="17" data-uid="lnk4" id="link_Player_Team"><path codeLine="17" d="M85.59,169.56 C85.59,195.38 85.59,217.14 85.59,239.82" fill="none" id="Player-to-Team" style="stroke:#181818;stroke-width:1;"/><polygon fill="#181818" points="85.59,245.82,89.59,236.82,85.59,240.82,81.59,236.82,85.59,245.82" style="stroke:#181818;stroke-width:1;"/><text fill="#000000" font-family="sans-serif" font-size="13" lengthAdjust="spacing" textLength="68.2627" x="86.59" y="212.1469">belongs to</text><text fill="#000000" font-family="sans-serif" font-size="13" lengthAdjust="spacing" textLength="23.0356" x="61.6035" y="189.2828">0..*</text><text fill="#000000" font-family="sans-serif" font-size="13" lengthAdjust="spacing" textLength="24.8066" x="59.9603" y="234.9924">0..1</text></g><!--SRC=[RK_B2i903BptAqAFIejUzw08NlOcw7v0R4CfR7TBDWeY_hlxK2ZYRMOocKmwYo70oUA369uLm7hEMFSAZD77f3YSIC5PU7H3udX7GJOyHWkFIUcyzQn0EqbC2AVl_ZwFcL2eFqYo1C5Ykytzh_gggYuNkiI8KcSPzg_CudJS_ZnIRzfsLKFJx3BSrYLGmPMiTqC0yMy0]--></g></svg>