<svg xmlns="http://www.w3.org/2000/svg" xmlns:xlink="http://www.w3.org/1999/xlink" contentStyleType="text/css" data-diagram-type="DESCRIPTION" height="565px" preserveAspectRatio="none" style="width:882px;height:565px;background:#FFFFFF;" version="1.1" viewBox="0 0 882 565" width="882px" zoomAndPan="magnify"><defs/><g><!--cluster Presentation--><g class="cluster" data-entity="Presentation" data-source-line="1" data-uid="ent0002" id="cluster_Presentation"><path d="M239.5,6 L342.1709,6 A3.75,3.75 0 0 1 344.6709,8.5 L351.6709,28.2969 L654.5,28.2969 A2.5,2.5 0 0 1 657,30.7969 L657,207.09 A2.5,2.5 0 0 1 654.5,209.59 L239.5,209.59 A2.5,2.5 0 0 1 237,207.09 L237,8.5 A2.5,2.5 0 0 1 239.5,6" fill="none" style="stroke:#000000;stroke-width:1.5;"/><line style="stroke:#000000;stroke-width:1.5;" x1="237" x2="351.6709" y1="28.2969" y2="28.2969"/><text fill="#000000" font-family="sans-serif" font-size="14" font-weight="bold" lengthAdjust="spacing" textLength="101.6709" x="241" y="20.9951">Presentation</text></g><!--cluster Domain--><g class="cluster" data-entity="Domain" data-source-line="7" data-uid="ent0006" id="cluster_Domain"><path d="M8.5,233.59 L69.54,233.59 A3.75,3.75 0 0 1 72.04,236.09 L79.04,255.8869 L872.5,255.8869 A2.5,2.5 0 0 1 875,258.3869 L875,328.39 A2.5,2.5 0 0 1 872.5,330.89 L8.5,330.89 A2.5,2.5 0 0 1 6,328.39 L6,236.09 A2.5,2.5 0 0 1 8.5,233.59" fill="none" style="stroke:#000000;stroke-width:1.5;"/><line style="stroke:#000000;stroke-width:1.5;" x1="6" x2="79.04" y1="255.8869" y2="255.8869"/><text fill="#000000" font-family="sans-serif" font-size="14" font-weight="bold" lengthAdjust="spacing" textLength="60.04" x="10" y="248.5851">Domain</text></g><!--cluster Data--><g class="cluster" data-entity="Data" data-source-line="14" data-uid="ent0011" id="cluster_Data"><path d="M281.5,354.89 L319.708,354.89 A3.75,3.75 0 0 1 322.208,357.39 L329.208,377.1869 L611.5,377.1869 A2.5,2.5 0 0 1 614,379.6869 L614,555.98 A2.5,2.5 0 0 1 611.5,558.48 L281.5,558.48 A2.5,2.5 0 0 1 279,555.98 L279,357.39 A2.5,2.5 0 0 1 281.5,354.89" fill="none" style="stroke:#000000;stroke-width:1.5;"/><line style="stroke:#000000;stroke-width:1.5;" x1="279" x2="329.208" y1="377.1869" y2="377.1869"/><text fill="#000000" font-family="sans-serif" font-size="14" font-weight="bold" lengthAdjust="spacing" textLength="37.208" x="283" y="369.8851">Data</text></g><!--entity PlayerListActivity--><g class="entity" data-entity="PlayerListActivity" data-source-line="2" data-uid="ent0003" id="entity_PlayerListActivity"><rect fill="#F1F1F1" height="46.2969" rx="2.5" ry="2.5" style="stroke:#181818;stroke-width:0.5;" width="160.6406" x="252.68" y="41"/><rect fill="#F1F1F1" height="10" style="stroke:#181818;stroke-width:0.5;" width="15" x="393.3206" y="46"/><rect fill="#F1F1F1" height="2" style="stroke:#181818;stroke-width:0.5;" width="4" x="391.3206" y="48"/><rect fill="#F1F1F1" height="2" style="stroke:#181818;stroke-width:0.5;" width="4" x="391.3206" y="52"/><text fill="#000000" font-family="sans-serif" font-size="14" lengthAdjust="spacing" textLength="120.6406" x="267.68" y="73.9951">PlayerListActivity</text></g><!--entity PlayerEditorFragment--><g class="entity" data-entity="PlayerEditorFragment" data-source-line="3" data-uid="ent0004" id="entity_PlayerEditorFragment"><rect fill="#F1F1F1" height="46.2969" rx="2.5" ry="2.5" style="stroke:#181818;stroke-width:0.5;" width="192.8857" x="448.56" y="41"/><rect fill="#F1F1F1" height="10" style="stroke:#181818;stroke-width:0.5;" width="15" x="621.4457" y="46"/><rect fill="#F1F1F1" height="2" style="stroke:#181818;stroke-width:0.5;" width="4" x="619.4457" y="48"/><rect fill="#F1F1F1" height="2" style="stroke:#181818;stroke-width:0.5;" width="4" x="619.4457" y="52"/><text fill="#000000" font-family="sans-serif" font-size="14" lengthAdjust="spacing" textLength="152.8857" x="463.56" y="73.9951">PlayerEditorFragment</text></g><!--entity PlayerViewModel--><g class="entity" data-entity="PlayerViewModel" data-source-line="4" data-uid="ent0005" id="entity_PlayerViewModel"><rect fill="#F1F1F1" height="46.2969" rx="2.5" ry="2.5" style="stroke:#181818;stroke-width:0.5;" width="159.1299" x="359.44" y="147.29"/><rect fill="#F1F1F1" height="10" style="stroke:#181818;stroke-width:0.5;" width="15" x="498.5699" y="152.29"/><rect fill="#F1F1F1" height="2" style="stroke:#181818;stroke-width:0.5;" width="4" x="496.5699" y="154.29"/><rect fill="#F1F1F1" height="2" style="stroke:#181818;stroke-width:0.5;" width="4" x="496.5699" y="158.29"/><text fill="#000000" font-family="sans-serif" font-size="14" lengthAdjust="spacing" textLength="119.1299" x="374.44" y="180.2851">PlayerViewModel</text></g><!--entity AddPlayerUseCase--><g class="entity" data-entity="AddPlayerUseCase" data-source-line="8" data-uid="ent0007" id="entity_AddPlayerUseCase"><rect fill="#F1F1F1" height="46.2969" rx="2.5" ry="2.5" style="stroke:#181818;stroke-width:0.5;" width="171.332" x="22.33" y="268.59"/><rect fill="#F1F1F1" height="10" style="stroke:#181818;stroke-width:0.5;" width="15" x="173.662" y="273.59"/><rect fill="#F1F1F1" height="2" style="stroke:#181818;stroke-width:0.5;" width="4" x="171.662" y="275.59"/><rect fill="#F1F1F1" height="2" style="stroke:#181818;stroke-width:0.5;" width="4" x="171.662" y="279.59"/><text fill="#000000" font-family="sans-serif" font-size="14" lengthAdjust="spacing" textLength="131.332" x="37.33" y="301.5851">AddPlayerUseCase</text></g><!--entity UpdatePlayerUseCase--><g class="entity" data-entity="UpdatePlayerUseCase" data-source-line="9" data-uid="ent0008" id="entity_UpdatePlayerUseCase"><rect fill="#F1F1F1" height="46.2969" rx="2.5" ry="2.5" style="stroke:#181818;stroke-width:0.5;" width="194.6836" x="228.66" y="268.59"/><rect fill="#F1F1F1" height="10" style="stroke:#181818;stroke-width:0.5;" width="15" x="403.3436" y="273.59"/><rect fill="#F1F1F1" height="2" style="stroke:#181818;stroke-width:0.5;" width="4" x="401.3436" y="275.59"/><rect fill="#F1F1F1" height="2" style="stroke:#181818;stroke-width:0.5;" width="4" x="401.3436" y="279.59"/><text fill="#000000" font-family="sans-serif" font-size="14" lengthAdjust="spacing" textLength="154.6836" x="243.66" y="301.5851">UpdatePlayerUseCase</text></g><!--entity DeletePlayerUseCase--><g class="entity" data-entity="DeletePlayerUseCase" data-source-line="10" data-uid="ent0009" id="entity_DeletePlayerUseCase"><rect fill="#F1F1F1" height="46.2969" rx="2.5" ry="2.5" style="stroke:#181818;stroke-width:0.5;" width="189.9805" x="458.01" y="268.59"/><rect fill="#F1F1F1" height="10" style="stroke:#181818;stroke-width:0.5;" width="15" x="627.9905" y="273.59"/><rect fill="#F1F1F1" height="2" style="stroke:#181818;stroke-width:0.5;" width="4" x="625.9905" y="275.59"/><rect fill="#F1F1F1" height="2" style="stroke:#181818;stroke-width:0.5;" width="4" x="625.9905" y="279.59"/><text fill="#000000" font-family="sans-serif" font-size="14" lengthAdjust="spacing" textLength="149.9805" x="473.01" y="301.5851">DeletePlayerUseCase</text></g><!--entity GetPlayersUseCase--><g class="entity" data-entity="GetPlayersUseCase" data-source-line="11" data-uid="ent0010" id="entity_GetPlayersUseCase"><rect fill="#F1F1F1" height="46.2969" rx="2.5" ry="2.5" style="stroke:#181818;stroke-width:0.5;" width="176.2266" x="682.89" y="268.59"/><rect fill="#F1F1F1" height="10" style="stroke:#181818;stroke-width:0.5;" width="15" x="839.1166" y="273.59"/><rect fill="#F1F1F1" height="2" style="stroke:#181818;stroke-width:0.5;" width="4" x="837.1166" y="275.59"/><rect fill="#F1F1F1" height="2" style="stroke:#181818;stroke-width:0.5;" width="4" x="837.1166" y="279.59"/><text fill="#000000" font-family="sans-serif" font-size="14" lengthAdjust="spacing" textLength="136.2266" x="697.89" y="301.5851">GetPlayersUseCase</text></g><!--entity PlayerRepository--><g class="entity" data-entity="PlayerRepository" data-source-line="15" data-uid="ent0012" id="entity_PlayerRepository"><rect fill="#F1F1F1" height="46.2969" rx="2.5" ry="2.5" style="stroke:#181818;stroke-width:0.5;" width="158.6377" x="359.68" y="389.89"/><rect fill="#F1F1F1" height="10" style="stroke:#181818;stroke-width:0.5;" width="15" x="498.3177" y="394.89"/><rect fill="#F1F1F1" height="2" style="stroke:#181818;stroke-width:0.5;" width="4" x="496.3177" y="396.89"/><rect fill="#F1F1F1" height="2" style="stroke:#181818;stroke-width:0.5;" width="4" x="496.3177" y="400.89"/><text fill="#000000" font-family="sans-serif" font-size="14" lengthAdjust="spacing" textLength="118.6377" x="374.68" y="422.8851">PlayerRepository</text></g><!--entity RoomDB--><g class="entity" data-entity="RoomDB" data-source-line="16" data-uid="ent0013" id="entity_RoomDB"><path d="M294.56,506.68 C294.56,496.68 335.0004,496.68 335.0004,496.68 C335.0004,496.68 375.4409,496.68 375.4409,506.68 L375.4409,531.9769 C375.4409,541.9769 335.0004,541.9769 335.0004,541.9769 C335.0004,541.9769 294.56,541.9769 294.56,531.9769 L294.56,506.68" fill="#F1F1F1" style="stroke:#181818;stroke-width:0.5;"/><path d="M294.56,506.68 C294.56,516.68 335.0004,516.68 335.0004,516.68 C335.0004,516.68 375.4409,516.68 375.4409,506.68" fill="none" style="stroke:#181818;stroke-width:0.5;"/><text fill="#000000" font-family="sans-serif" font-size="14" lengthAdjust="spacing" textLength="60.8809" x="304.56" y="533.6751">RoomDB</text></g><!--entity GPGSPlayerSnapshot--><g class="entity" data-entity="GPGSPlayerSnapshot" data-source-line="17" data-uid="ent0014" id="entity_GPGSPlayerSnapshot"><rect fill="#F1F1F1" height="46.2969" rx="2.5" ry="2.5" style="stroke:#181818;stroke-width:0.5;" width="188.0391" x="409.98" y="496.18"/><rect fill="#F1F1F1" height="10" style="stroke:#181818;stroke-width:0.5;" width="15" x="578.0191" y="501.18"/><rect fill="#F1F1F1" height="2" style="stroke:#181818;stroke-width:0.5;" width="4" x="576.0191" y="503.18"/><rect fill="#F1F1F1" height="2" style="stroke:#181818;stroke-width:0.5;" width="4" x="576.0191" y="507.18"/><text fill="#000000" font-family="sans-serif" font-size="14" lengthAdjust="spacing" textLength="148.0391" x="424.98" y="529.1751">GPGSPlayerSnapshot</text></g><!--link PlayerListActivity to PlayerViewModel--><g class="link" data-entity-1="PlayerListActivity" data-entity-2="PlayerViewModel" data-source-line="20" data-uid="lnk15" id="link_PlayerListActivity_PlayerViewModel"><path d="M356,87.77 C373.78,105.27 394.0038,125.1612 411.7638,142.6412" fill="none" id="PlayerListActivity-to-PlayerViewModel" style="stroke:#181818;stroke-width:1;"/><polygon fill="#181818" points="416.04,146.85,412.4315,137.686,412.4765,143.3427,406.8198,143.3876,416.04,146.85" style="stroke:#181818;stroke-width:1;"/></g><!--link PlayerEditorFragment to PlayerViewModel--><g class="link" data-entity-1="PlayerEditorFragment" data-entity-2="PlayerViewModel" data-source-line="21" data-uid="lnk16" id="link_PlayerEditorFragment_PlayerViewModel"><path d="M522,87.77 C504.22,105.27 483.9962,125.1612 466.2362,142.6412" fill="none" id="PlayerEditorFragment-to-PlayerViewModel" style="stroke:#181818;stroke-width:1;"/><polygon fill="#181818" points="461.96,146.85,471.1802,143.3876,465.5235,143.3427,465.5685,137.686,461.96,146.85" style="stroke:#181818;stroke-width:1;"/></g><!--link PlayerViewModel to AddPlayerUseCase--><g class="link" data-entity-1="PlayerViewModel" data-entity-2="AddPlayerUseCase" data-source-line="22" data-uid="lnk17" id="link_PlayerViewModel_AddPlayerUseCase"><path d="M359.14,183.71 C314.44,192.21 258.34,205.65 211,225.59 C184.67,236.68 162.3634,250.718 142.5334,264.788" fill="none" id="PlayerViewModel-to-AddPlayerUseCase" style="stroke:#181818;stroke-width:1;"/><polygon fill="#181818" points="137.64,268.26,147.2947,266.3142,141.7178,265.3667,142.6654,259.7897,137.64,268.26" style="stroke:#181818;stroke-width:1;"/></g><!--link PlayerViewModel to UpdatePlayerUseCase--><g class="link" data-entity-1="PlayerViewModel" data-entity-2="UpdatePlayerUseCase" data-source-line="23" data-uid="lnk18" id="link_PlayerViewModel_UpdatePlayerUseCase"><path d="M417.75,193.88 C397.54,215.21 371.4555,242.7434 351.2855,264.0434" fill="none" id="PlayerViewModel-to-UpdatePlayerUseCase" style="stroke:#181818;stroke-width:1;"/><polygon fill="#181818" points="347.16,268.4,356.2527,264.6154,350.5979,264.7695,350.4438,259.1147,347.16,268.4" style="stroke:#181818;stroke-width:1;"/></g><!--link PlayerViewModel to DeletePlayerUseCase--><g class="link" data-entity-1="PlayerViewModel" data-entity-2="DeletePlayerUseCase" data-source-line="24" data-uid="lnk19" id="link_PlayerViewModel_DeletePlayerUseCase"><path d="M460.44,193.88 C480.82,215.21 507.1552,242.7617 527.5052,264.0617" fill="none" id="PlayerViewModel-to-DeletePlayerUseCase" style="stroke:#181818;stroke-width:1;"/><polygon fill="#181818" points="531.65,268.4,528.325,259.1294,528.196,264.7848,522.5406,264.6558,531.65,268.4" style="stroke:#181818;stroke-width:1;"/></g><!--link PlayerViewModel to GetPlayersUseCase--><g class="link" data-entity-1="PlayerViewModel" data-entity-2="GetPlayersUseCase" data-source-line="25" data-uid="lnk20" id="link_PlayerViewModel_GetPlayersUseCase"><path d="M518.85,184.19 C563,192.8 618.23,206.19 665,225.59 C691.94,236.76 714.9939,250.8735 735.4539,264.9235" fill="none" id="PlayerViewModel-to-GetPlayersUseCase" style="stroke:#181818;stroke-width:1;"/><polygon fill="#181818" points="740.4,268.32,735.2452,259.9279,736.2783,265.4896,730.7165,266.5226,740.4,268.32" style="stroke:#181818;stroke-width:1;"/></g><!--link AddPlayerUseCase to PlayerRepository--><g class="link" data-entity-1="AddPlayerUseCase" data-entity-2="PlayerRepository" data-source-line="26" data-uid="lnk21" id="link_AddPlayerUseCase_PlayerRepository"><path d="M155.49,315.34 C172.79,323.22 192.61,331.84 211,338.89 C260.3,357.77 311.0593,374.1753 355.4793,387.6753" fill="none" id="AddPlayerUseCase-to-PlayerRepository" style="stroke:#181818;stroke-width:1;"/><polygon fill="#181818" points="361.22,389.42,353.772,382.9758,356.4361,387.9661,351.4458,390.6301,361.22,389.42" style="stroke:#181818;stroke-width:1;"/></g><!--link UpdatePlayerUseCase to PlayerRepository--><g class="link" data-entity-1="UpdatePlayerUseCase" data-entity-2="PlayerRepository" data-source-line="27" data-uid="lnk22" id="link_UpdatePlayerUseCase_PlayerRepository"><path d="M347.25,315.18 C367.46,336.51 393.5445,364.0434 413.7145,385.3434" fill="none" id="UpdatePlayerUseCase-to-PlayerRepository" style="stroke:#181818;stroke-width:1;"/><polygon fill="#181818" points="417.84,389.7,414.5562,380.4147,414.4021,386.0695,408.7473,385.9154,417.84,389.7" style="stroke:#181818;stroke-width:1;"/></g><!--link DeletePlayerUseCase to PlayerRepository--><g class="link" data-entity-1="DeletePlayerUseCase" data-entity-2="PlayerRepository" data-source-line="28" data-uid="lnk23" id="link_DeletePlayerUseCase_PlayerRepository"><path d="M531.56,315.18 C511.18,336.51 484.8448,364.0617 464.4948,385.3617" fill="none" id="DeletePlayerUseCase-to-PlayerRepository" style="stroke:#181818;stroke-width:1;"/><polygon fill="#181818" points="460.35,389.7,469.4594,385.9558,463.804,386.0848,463.675,380.4294,460.35,389.7" style="stroke:#181818;stroke-width:1;"/></g><!--link GetPlayersUseCase to PlayerRepository--><g class="link" data-entity-1="GetPlayersUseCase" data-entity-2="PlayerRepository" data-source-line="29" data-uid="lnk24" id="link_GetPlayersUseCase_PlayerRepository"><path d="M721.8,315.35 C704.05,323.19 683.77,331.78 665,338.89 C615.73,357.54 565.0838,374.0226 520.9638,387.6226" fill="none" id="GetPlayersUseCase-to-PlayerRepository" style="stroke:#181818;stroke-width:1;"/><polygon fill="#181818" points="515.23,389.39,525.009,390.5614,520.0081,387.9171,522.6524,382.9163,515.23,389.39" style="stroke:#181818;stroke-width:1;"/></g><!--link PlayerRepository to RoomDB--><g class="link" data-entity-1="PlayerRepository" data-entity-2="RoomDB" data-source-line="30" data-uid="lnk25" id="link_PlayerRepository_RoomDB"><path d="M416.43,436.67 C398.75,454.4 378.5366,474.6713 361.0466,492.2113" fill="none" id="PlayerRepository-to-RoomDB" style="stroke:#181818;stroke-width:1;"/><polygon fill="#181818" points="356.81,496.46,365.9973,492.9113,360.3405,492.9194,360.3324,487.2626,356.81,496.46" style="stroke:#181818;stroke-width:1;"/></g><!--link PlayerRepository to GPGSPlayerSnapshot--><g class="link" data-entity-1="PlayerRepository" data-entity-2="GPGSPlayerSnapshot" data-source-line="31" data-uid="lnk26" id="link_PlayerRepository_GPGSPlayerSnapshot"><path d="M453.1,436.67 C464.01,454.16 475.8573,473.1674 486.7473,490.6474" fill="none" id="PlayerRepository-to-GPGSPlayerSnapshot" style="stroke:#181818;stroke-width:1;"/><polygon fill="#181818" points="489.92,495.74,488.5561,485.986,487.2761,491.4962,481.766,490.2163,489.92,495.74" style="stroke:#181818;stroke-width:1;"/></g><!--SRC=[VP7D2i9038JlVOh5kwyWLAjU54f5xx4RwcBRBDsWYFZkziUAxSOUD_E5cSnQIA-GePh55Jei6TXGELFFGAcK2ajbFLDn3W-iTiPncBAv6Nu8ybeRfcfJGLRKGm4u6RplIMCUl8B0zhuH5M0ynr3hRkdeS0KE1-BHQc3yhqUOuvI-HUv4rwk3GC0W5v2W9TSSsPnVHu1plQiIeY9Q3WtYxQ5REPHWtOMuSV1RLFFvmYj7QdC2_BvRnkjDWgJ-94xgKUByFiSnVlB_b2Zaa44XY0nwIMHiF6Yfpp-Acl-XRm00]--></g></svg>